{
    "accessors" : [
        {
            "bufferView" : 0,
            "componentType" : 5126,
            "count" : 443,
            "max" : [
                1.5,
                0.25000011920928955,
                0.24999985098838806
            ],
            "min" : [
                0.060000043362379074,
                -0.24999991059303284,
                -0.25000011920928955
            ],
            "type" : "VEC3"
        },
        {
            "bufferView" : 1,
            "componentType" : 5126,
            "count" : 443,
            "type" : "VEC4"
        },
        {
            "bufferView" : 2,
            "componentType" : 5123,
            "count" : 660,
            "type" : "SCALAR"
        },
        {
            "bufferView" : 3,
            "componentType" : 5126,
            "count" : 384,
            "max" : [
                0.25,
                1.5,
                0.25
            ],
            "min" : [
                -0.2499999701976776,
                0.06000005826354027,
                -0.24999994039535522
            ],
            "type" : "VEC3"
        },
        {
            "bufferView" : 4,
            "componentType" : 5126,
            "count" : 384,
            "type" : "VEC4"
        },
        {
            "bufferView" : 5,
            "componentType" : 5123,
            "count" : 660,
            "type" : "SCALAR"
        },
        {
            "bufferView" : 6,
            "componentType" : 5126,
            "count" : 395,
            "max" : [
                0.2500000298023224,
                0.24999994039535522,
                1.5
            ],
            "min" : [
                -0.2499999850988388,
                -0.25,
                0.06000005453824997
            ],
            "type" : "VEC3"
        },
        {
            "bufferView" : 7,
            "componentType" : 5126,
            "count" : 395,
            "type" : "VEC4"
        },
        {
            "bufferView" : 8,
            "componentType" : 5123,
            "count" : 660,
            "type" : "SCALAR"
        }
    ],
    "asset" : {
        "generator" : "Khronos Blender glTF 2.0 I/O",
        "version" : "2.0"
    },
    "bufferViews" : [
        {
            "buffer" : 0,
            "byteLength" : 5316,
            "byteOffset" : 0
        },
        {
            "buffer" : 0,
            "byteLength" : 7088,
            "byteOffset" : 5316
        },
        {
            "buffer" : 0,
            "byteLength" : 1320,
            "byteOffset" : 12404
        },
        {
            "buffer" : 0,
            "byteLength" : 4608,
            "byteOffset" : 13724
        },
        {
            "buffer" : 0,
            "byteLength" : 6144,
            "byteOffset" : 18332
        },
        {
            "buffer" : 0,
            "byteLength" : 1320,
            "byteOffset" : 24476
        },
        {
            "buffer" : 0,
            "byteLength" : 4740,
            "byteOffset" : 25796
        },
        {
            "buffer" : 0,
            "byteLength" : 6320,
            "byteOffset" : 30536
        },
        {
            "buffer" : 0,
            "byteLength" : 1320,
            "byteOffset" : 36856
        }
    ],
    "buffers" : [
        {
            "byteLength" : 38176,
            "uri" : "data:application/octet-stream;base64,"
        }
    ],
    "cameras" : [
        {
            "name" : "Camera",
            "perspective" : {
                "yfov" : 0.39959652046304894,
                "zfar" : 100,
                "znear" : 0.10000000149011612
            },
            "type" : "perspective"
        }
    ],
    "extensions" : {},
    "meshes" : [
        {
            "name" : "Gizmo",
            "primitives" : [
                {
                    "attributes" : {
                        "COLOR_0" : 1,
                        "POSITION" : 0
                    },
                    "indices" : 2
                },
                {
                    "attributes" : {
                        "COLOR_0" : 4,
                        "POSITION" : 3
                    },
                    "indices" : 5
                },
                {
                    "attributes" : {
                        "COLOR_0" : 7,
                        "POSITION" : 6
                    },
                    "indices" : 8
                }
            ]
        }
    ],
    "nodes" : [
        {
            "camera" : 0,
            "name" : "Camera_Orientation",
            "rotation" : [
                -0.7071067690849304,
                0,
                0,
                0.7071067690849304
            ]
        },
        {
            "children" : [
                0
            ],
            "name" : "Camera",
            "rotation" : [
                0.7071068286895752,
                0,
                0,
                0.7071068286895752
            ],
            "translation" : [
                0,
                0,
                5
            ]
        },
        {
            "mesh" : 0,
            "name" : "Gizmo",
            "rotation" : [
                1,
                0,
                0,
                1.6292068494294654e-07
            ]
        }
    ],
    "scene" : 0,
    "scenes" : [
        {
            "name" : "Scene",
            "nodes" : [
                1,
                2
            ]
        }
    ]
}
