{
    "accessors" : [
        {
            "bufferView" : 0,
            "componentType" : 5126,
            "count" : 1208,
            "max" : [
                1.5,
                1.5,
                0.25
            ],
            "min" : [
                -0.25,
                -0.25,
                -1.5
            ],
            "type" : "VEC3"
        },
        {
            "bufferView" : 1,
            "componentType" : 5126,
            "count" : 1208,
            "type" : "VEC4"
        },
        {
            "bufferView" : 2,
            "componentType" : 5123,
            "count" : 1980,
            "type" : "SCALAR"
        }
    ],
    "asset" : {
        "generator" : "Khronos Blender glTF 2.0 I/O",
        "version" : "2.0"
    },
    "bufferViews" : [
        {
            "buffer" : 0,
            "byteLength" : 14496,
            "byteOffset" : 0
        },
        {
            "buffer" : 0,
            "byteLength" : 19328,
            "byteOffset" : 14496
        },
        {
            "buffer" : 0,
            "byteLength" : 3960,
            "byteOffset" : 33824
        }
    ],
    "buffers" : [
        {
            "byteLength" : 37784,
            "uri" : "data:application/octet-stream;base64,"
        }
    ],
    "extensions" : {},
    "meshes" : [
        {
            "name" : "Gizmo",
            "primitives" : [
                {
                    "attributes" : {
                        "COLOR_0" : 1,
                        "POSITION" : 0
                    },
                    "indices" : 2
                }
            ]
        }
    ],
    "nodes" : [
        {
            "mesh" : 0,
            "name" : "Gizmo"
        }
    ],
    "scene" : 0,
    "scenes" : [
        {
            "name" : "Scene",
            "nodes" : [
                0
            ]
        }
    ]
}
