{
    "accessors" : [
        {
            "bufferView" : 0,
            "componentType" : 5126,
            "count" : 1222,
            "max" : [
                1.5,
                1.5,
                1.5
            ],
            "min" : [
                -0.2499999850988388,
                -0.25,
                -0.25000011920928955
            ],
            "type" : "VEC3"
        },
        {
            "bufferView" : 1,
            "componentType" : 5126,
            "count" : 1222,
            "type" : "VEC4"
        },
        {
            "bufferView" : 2,
            "componentType" : 5123,
            "count" : 1980,
            "type" : "SCALAR"
        }
    ],
    "asset" : {
        "generator" : "Khronos Blender glTF 2.0 I/O",
        "version" : "2.0"
    },
    "bufferViews" : [
        {
            "buffer" : 0,
            "byteLength" : 14664,
            "byteOffset" : 0
        },
        {
            "buffer" : 0,
            "byteLength" : 19552,
            "byteOffset" : 14664
        },
        {
            "buffer" : 0,
            "byteLength" : 3960,
            "byteOffset" : 34216
        }
    ],
    "buffers" : [
        {
            "byteLength" : 38176,
            "uri" : "data:application/octet-stream;base64,"
        }
    ],
    "cameras" : [
        {
            "name" : "Camera",
            "perspective" : {
                "yfov" : 0.39959652046304894,
                "zfar" : 100,
                "znear" : 0.10000000149011612
            },
            "type" : "perspective"
        }
    ],
    "extensions" : {},
    "meshes" : [
        {
            "name" : "Gizmo",
            "primitives" : [
                {
                    "attributes" : {
                        "COLOR_0" : 1,
                        "POSITION" : 0
                    },
                    "indices" : 2
                }
            ]
        }
    ],
    "nodes" : [
        {
            "camera" : 0,
            "name" : "Camera_Orientation",
            "rotation" : [
                -0.7071067690849304,
                0,
                0,
                0.7071067690849304
            ]
        },
        {
            "children" : [
                0
            ],
            "name" : "Camera",
            "rotation" : [
                0.483536034822464,
                0.33687159419059753,
                -0.20870360732078552,
                0.7804827094078064
            ],
            "translation" : [
                7.358891487121582,
                4.958309173583984,
                6.925790786743164
            ]
        },
        {
            "mesh" : 0,
            "name" : "Gizmo",
            "rotation" : [
                1,
                0,
                0,
                1.6292068494294654e-07
            ]
        }
    ],
    "scene" : 0,
    "scenes" : [
        {
            "name" : "Scene",
            "nodes" : [
                1,
                2
            ]
        }
    ]
}
